<?xml version="1.0" standalone="no"?><!DOCTYPE svg PUBLIC "-//W3C//DTD SVG 1.1//EN" "http://www.w3.org/Graphics/SVG/1.1/DTD/svg11.dtd"><svg t="1595808303286" class="icon" viewBox="0 0 1024 1024" version="1.1" xmlns="http://www.w3.org/2000/svg" p-id="585" width="128" height="128" xmlns:xlink="http://www.w3.org/1999/xlink"><defs><style type="text/css"></style></defs><path d="M563.2 593.92c0-6.826667-6.826667-13.653333-17.066667-13.653333h-68.266666c-6.826667 0-17.066667 6.826667-17.066667 13.653333l-68.266667 409.6c0 3.413333 0 10.24 3.413334 13.653333 3.413333 3.413333 6.826667 6.826667 13.653333 6.826667h204.8c10.24 0 17.066667-6.826667 17.066667-17.066667v-6.826666l-68.266667-406.186667z" fill="#FFFFFF" p-id="586"></path><path d="M512 460.8m-85.333333 0a85.333333 85.333333 0 1 0 170.666666 0 85.333333 85.333333 0 1 0-170.666666 0Z" fill="#FFFFFF" p-id="587"></path><path d="M440.32 354.986667c3.413333 3.413333 10.24 3.413333 13.653333 0 37.546667-20.48 78.506667-20.48 116.053334 0 3.413333 0 6.826667 3.413333 6.826666 3.413333h6.826667l10.24-10.24c3.413333-6.826667 3.413333-13.653333 3.413333-20.48 0-23.893333-17.066667-122.88-51.2-300.373333-3.413333-13.653333-17.066667-27.306667-34.133333-27.306667s-30.72 10.24-34.133333 27.306667c-34.133333 174.08-51.2 273.066667-51.2 293.546666 0 6.826667 0 13.653333 3.413333 20.48 0 10.24 3.413333 13.653333 10.24 13.653334zM453.973333 587.093333c3.413333-3.413333 6.826667-10.24 3.413334-13.653333 0-6.826667-3.413333-10.24-6.826667-13.653333-34.133333-20.48-58.026667-58.026667-58.026667-98.986667 0-6.826667-3.413333-10.24-6.826666-13.653333-3.413333-3.413333-10.24-3.413333-13.653334-3.413334-6.826667 3.413333-13.653333 3.413333-20.48 6.826667-17.066667 10.24-95.573333 75.093333-228.693333 191.146667-10.24 10.24-13.653333 23.893333-10.24 37.546666 3.413333 13.653333 17.066667 23.893333 30.72 23.893334 3.413333 0 6.826667 0 10.24-3.413334 167.253333-58.026667 262.826667-92.16 279.893333-102.4 10.24 0 13.653333-3.413333 20.48-10.24zM901.12 645.12c-133.12-116.053333-211.626667-180.906667-228.693333-191.146667-6.826667-3.413333-13.653333-6.826667-20.48-6.826666-3.413333 0-10.24 0-13.653334 3.413333s-6.826667 6.826667-6.826666 13.653333c0 40.96-23.893333 78.506667-58.026667 98.986667-3.413333 3.413333-6.826667 6.826667-6.826667 13.653333s0 10.24 3.413334 13.653334c6.826667 6.826667 10.24 10.24 17.066666 13.653333 17.066667 10.24 112.64 44.373333 279.893334 102.4 3.413333 0 6.826667 3.413333 10.24 3.413333 13.653333 0 27.306667-10.24 30.72-23.893333 10.24-13.653333 6.826667-30.72-6.826667-40.96z" fill="#FFFFFF" p-id="588"></path></svg>